#!OML:ASF F:\VICON\USERDATA\INSTALL\rory3\rory3.ASF
:FULLY-SPECIFIED
:DEGREES
494
root -18.9767 17.8489 10.5786 -198.974 86.2316 162.547
lowerback 9.11001 -1.85404 -4.42588
upperback 1.04694 -2.81394 1.36813
thorax -3.73189 -1.30935 4.25227
lowerneck -10.1891 -3.25938 -13.164
upperneck 43.023 0.022156 3.32748
head 17.8506 -0.931407 4.18503
rclavicle 1.80149e-014 5.96354e-016
rhumerus -35.403 -19.528 -72.3219
rradius 29.0444
rwrist 8.67139
rhand -13.1212 7.28882
rfingers 7.12502
rthumb 12.9764 -22.2876
lclavicle 1.80149e-014 5.96354e-016
lhumerus -25.9228 2.13115 87.1778
lradius 37.2819
lwrist -4.30425
lhand -18.6195 26.0545
lfingers 7.12502
lthumb 7.67242 55.8953
rfemur -22.663 0.829837 17.3699
rtibia 31.5794
rfoot -1.21948 0.388614
rtoes -9.90209
lfemur 13.457 -5.88015 -23.8567
ltibia 15.9713
lfoot -5.46466 -11.4964
ltoes -19.3732
495
root -19.1396 17.8394 10.5442 -204.232 86.5078 157.241
lowerback 9.34982 -1.75387 -4.71269
upperback 1.10233 -2.723 1.23833
thorax -3.81008 -1.25848 4.27753
lowerneck -10.3385 -3.21354 -12.9737
upperneck 42.8976 -0.0476215 3.48601
head 17.8094 -0.912724 4.20717
rclavicle 4.84538e-015 -5.56597e-015
rhumerus -34.8831 -20.2772 -72.4417
rradius 28.7436
rwrist 9.30223
rhand -13.3081 7.39619
rfingers 7.12502
rthumb 12.7962 -22.1916
lclavicle 4.84538e-015 -5.56597e-015
lhumerus -25.8484 1.40137 87.1509
lradius 37.4417
lwrist -3.68274
lhand -18.4679 26.187
lfingers 7.12502
lthumb 7.81872 56.0224
rfemur -23.4656 0.353945 17.019
rtibia 31.6585
rfoot -0.500135 1.17285
rtoes -8.71818
lfemur 13.7089 -5.21929 -24.2186
ltibia 14.5541
lfoot -5.74652 -11.0134
ltoes -19.1662
496
root -19.3 17.8233 10.5098 -212.604 86.7565 148.765
lowerback 9.4534 -1.62153 -5.10737
upperback 1.16784 -2.59595 1.09004
thorax -3.80209 -1.1913 4.33308
lowerneck -10.4415 -3.20823 -13.002
upperneck 42.7491 -0.186484 3.79028
head 17.7564 -0.937912 4.32371
rclavicle -1.2424e-014 7.7526e-015
rhumerus -34.3858 -21.0959 -72.5055
rradius 28.4627
rwrist 9.88783
rhand -13.4103 7.73196
rfingers 7.12502
rthumb 12.6976 -21.862
lclavicle -1.2424e-014 7.7526e-015
lhumerus -25.7828 1.07351 87.089
lradius 37.4594
lwrist -3.73524
lhand -18.7191 25.7156
lfingers 7.12502
lthumb 7.57625 55.5599
rfemur -24.3601 -0.0335326 16.5595
rtibia 31.7691
rfoot 0.210241 1.80178
rtoes -7.74571
lfemur 13.8346 -4.20205 -24.6828
ltibia 13.1562
lfoot -6.64609 -10.4021
ltoes -23.7967
497
root -19.4607 17.7999 10.4727 -223.499 86.9431 137.676
lowerback 9.49152 -1.43948 -5.49614
upperback 1.14111 -2.40406 0.933894
thorax -3.86328 -1.08878 4.36893
lowerneck -10.4251 -3.24406 -12.9777
upperneck 42.66 -0.346615 3.96222
head 17.7137 -0.977725 4.36736
rclavicle 2.38542e-015 1.82882e-014
rhumerus -34.0951 -21.7254 -72.5414
rradius 28.3822
rwrist 10.2083
rhand -13.2035 7.75087
rfingers 7.12502
rthumb 12.897 -21.8306
lclavicle 2.38542e-015 1.82882e-014
lhumerus -25.9615 0.828222 87.0507
lradius 37.585
lwrist -4.03858
lhand -18.9088 25.6538
lfingers 7.12502
lthumb 7.39321 55.5046
rfemur -25.2868 -0.299211 16.0419
rtibia 31.7117
rfoot 1.05934 2.0487
rtoes -5.61024
lfemur 13.6667 -2.83712 -25.1559
ltibia 12.1087
lfoot -8.1607 -9.55445
ltoes -32.5887
498
root -19.6184 17.8001 10.434 -234.81 87.0391 126.245
lowerback 9.62664 -1.30675 -5.8342
upperback 1.12132 -2.27786 0.777584
thorax -3.96701 -1.0176 4.38675
lowerneck -10.4179 -3.20145 -12.8367
upperneck 42.5087 -0.387733 4.03376
head 17.6181 -0.962647 4.35786
rclavicle -1.85615e-014 -8.15017e-015
rhumerus -33.7921 -22.0391 -72.8013
rradius 28.3651
rwrist 10.4572
rhand -13.2017 7.4497
rfingers 7.12502
rthumb 12.8987 -22.1317
lclavicle -1.85615e-014 -8.15017e-015
lhumerus -26.1882 0.596165 86.9619
lradius 37.762
lwrist -3.85009
lhand -19.084 26.1128
lfingers 7.12502
lthumb 7.22406 55.9695
rfemur -26.059 -0.421231 15.5377
rtibia 31.7478
rfoot 1.57827 2.06458
rtoes -3.56096
lfemur 13.8253 -2.078 -25.6194
ltibia 10.6447
lfoot -8.1792 -9.38276
ltoes -33.5625
499
root -19.769 17.8378 10.3936 -245.212 87.0358 115.9
lowerback 9.81076 -1.229 -6.14611
upperback 1.22592 -2.21793 0.650478
thorax -3.95999 -0.984779 4.42659
lowerneck -10.4977 -3.11394 -12.8987
upperneck 42.302 -0.370551 4.27257
head 17.5086 -0.936357 4.47008
rclavicle 1.41634e-014 -1.59028e-015
rhumerus -33.3821 -22.6618 -73.012
rradius 28.3133
rwrist 10.9761
rhand -13.3738 7.48999
rfingers 7.12502
rthumb 12.7329 -22.1018
lclavicle 1.41634e-014 -1.59028e-015
lhumerus -26.4135 0.47073 86.8778
lradius 38.075
lwrist -3.33689
lhand -19.3682 26.5501
lfingers 7.12502
lthumb 6.94972 56.416
rfemur -26.3554 -0.493217 15.0704
rtibia 31.5174
rfoot 1.65594 2.26318
rtoes -4.06029
lfemur 13.902 -1.72916 -25.9389
ltibia 9.72469
lfoot -6.60959 -10.2055
ltoes -20.5763
500
root -19.9195 17.8107 10.3543 -255.344 86.8288 105.778
lowerback 9.89983 -1.13116 -6.53561
upperback 1.31889 -2.13519 0.508089
thorax -3.9129 -0.941144 4.4878
lowerneck -10.5591 -3.05821 -12.9158
upperneck 42.1343 -0.352237 4.38043
head 17.4199 -0.918689 4.51502
rclavicle 1.91703e-014 5.96354e-016
rhumerus -32.9646 -23.2198 -73.1767
rradius 28.2974
rwrist 11.0123
rhand -13.2988 7.41922
rfingers 7.12502
rthumb 12.8052 -22.168
lclavicle 1.91703e-014 5.96354e-016
lhumerus -26.718 0.612131 86.7364
lradius 38.4229
lwrist -3.24064
lhand -19.5809 26.6486
lfingers 7.12502
lthumb 6.74445 56.5212
rfemur -26.8751 -0.793119 14.5389
rtibia 31.4385
rfoot 1.32128 2.86299
rtoes -7.18454
lfemur 13.8249 -1.38013 -26.4698
ltibia 8.96407
lfoot -6.46744 -9.94985
ltoes -18.2276
501
root -20.0633 17.8363 10.3083 -264.372 86.6455 96.7978
lowerback 10.0174 -1.06453 -6.69215
upperback 1.40968 -2.07062 0.382879
thorax -3.88996 -0.909053 4.43866
lowerneck -10.7105 -3.00027 -13.0445
upperneck 42.0433 -0.283641 4.50859
head 17.397 -0.898627 4.6041
rclavicle 1.2188e-014 4.77083e-015
rhumerus -32.5447 -23.1519 -73.5693
rradius 28.3849
rwrist 10.554
rhand -12.9918 7.2696
rfingers 7.12502
rthumb 13.1011 -22.2989
lclavicle 1.2188e-014 4.77083e-015
lhumerus -27.0967 0.694777 86.5619
lradius 38.7505
lwrist -3.12322
lhand -19.8963 26.9342
lfingers 7.12502
lthumb 6.43989 56.8163
rfemur -27.1429 -1.28764 14.1726
rtibia 31.3257
rfoot 0.523416 3.77729
rtoes -10.5861
lfemur 13.7057 -0.996062 -26.8957
ltibia 8.32962
lfoot -6.00708 -10.1158
ltoes -12.8765
502
root -20.2063 17.8142 10.2669 -271.86 86.5109 89.4215
lowerback 10.1789 -1.03231 -6.66797
upperback 1.49302 -2.03706 0.227188
thorax -3.90301 -0.893371 4.26085
lowerneck -10.8958 -2.90322 -12.9817
upperneck 42.0991 -0.148541 4.55526
head 17.4552 -0.834031 4.64254
rclavicle 2.01269e-014 -1.43125e-014
rhumerus -32.2348 -22.9738 -74.105
rradius 28.526
rwrist 10.3117
rhand -13.3748 7.18925
rfingers 7.12502
rthumb 12.7319 -22.4026
lclavicle 2.01269e-014 -1.43125e-014
lhumerus -27.448 0.568449 86.3646
lradius 38.8562
lwrist -2.70967
lhand -20.0089 26.9651
lfingers 7.12502
lthumb 6.3312 56.8505
rfemur -27.5035 -1.66685 13.9093
rtibia 31.5824
rfoot -0.478265 4.49531
rtoes -12.8696
lfemur 13.8375 -0.628683 -27.2437
ltibia 7.45296
lfoot -6.27556 -9.88782
ltoes -15.0409
503
root -20.3482 17.8078 10.2264 -276.808 86.4195 84.5293
lowerback 10.2936 -1.00053 -6.58513
upperback 1.55876 -1.99504 0.0803406
thorax -3.91103 -0.874253 4.05699
lowerneck -11.0519 -2.86297 -12.8404
upperneck 42.2104 -0.108004 4.57927
head 17.5505 -0.798765 4.64482
rclavicle -2.32205e-014 1.10325e-014
rhumerus -32.0698 -23.0647 -74.5642
rradius 28.8307
rwrist 10.2368
rhand -13.8304 7.01212
rfingers 7.12502
rthumb 12.2926 -22.6066
lclavicle -2.32205e-014 1.10325e-014
lhumerus -27.6574 0.398676 86.1427
lradius 38.7777
lwrist -2.42147
lhand -19.4808 26.5988
lfingers 7.12502
lthumb 6.84108 56.4683
rfemur -27.7514 -1.79475 13.6744
rtibia 31.7508
rfoot -1.32066 4.85532
rtoes -14.9411
lfemur 13.3167 -0.402557 -27.48
ltibia 7.6831
lfoot -6.65546 -9.59579
ltoes -15.068
504
root -20.4868 17.8142 10.1863 -281.479 86.4762 79.9374
lowerback 10.425 -1.03404 -6.44742
upperback 1.62631 -2.02733 0.13271
thorax -3.91218 -0.892689 4.04148
lowerneck -11.2247 -2.79022 -13.1027
upperneck 42.2874 0.0831549 4.64915
head 17.6216 -0.760291 4.76424
rclavicle -2.2003e-014 -1.09332e-015
rhumerus -31.7893 -22.5025 -75.0129
rradius 29.1585
rwrist 9.75773
rhand -13.8794 6.94274
rfingers 7.12502
rthumb 12.2453 -22.6788
lclavicle -2.2003e-014 -1.09332e-015
lhumerus -27.8148 0.467442 86.0555
lradius 38.6057
lwrist -2.29847
lhand -19.2532 26.4049
lfingers 7.12502
lthumb 7.06078 56.2671
rfemur -27.9863 -2.16722 13.7334
rtibia 32.1899
rfoot -2.29084 5.53608
rtoes -17.8792
lfemur 12.8937 -0.210969 -27.5375
ltibia 7.75188
lfoot -6.89622 -9.13427
ltoes -15.6913
505
root -20.618 17.8334 10.1443 -287.65 86.3495 73.8989
lowerback 10.5183 -1.15003 -6.49039
upperback 1.74827 -2.18053 0.240724
thorax -3.81189 -0.972894 4.19924
lowerneck -11.6617 -2.6163 -13.541
upperneck 42.4431 0.577783 4.60466
head 17.7746 -0.650205 4.92176
rclavicle -1.79652e-014 -3.18055e-015
rhumerus -31.2478 -21.1887 -75.6547
rradius 29.4525
rwrist 8.98988
rhand -13.9195 6.87956
rfingers 7.12502
rthumb 12.2067 -22.7443
lclavicle -1.79652e-014 -3.18055e-015
lhumerus -27.9636 1.04426 85.9442
lradius 38.3755
lwrist -2.19202
lhand -19.3781 26.5913
lfingers 7.12502
lthumb 6.9402 56.4575
rfemur -28.1635 -2.65503 13.7352
rtibia 32.8734
rfoot -3.19249 6.6854
rtoes -20.6891
lfemur 12.5157 0.098227 -27.7141
ltibia 7.99862
lfoot -6.88571 -8.83918
ltoes -13.0131
506
root -20.746 17.8471 10.1067 -292 86.0858 69.6757
lowerback 10.5704 -1.13912 -6.68686
upperback 1.85532 -2.18374 0.257282
thorax -3.71928 -0.976743 4.32723
lowerneck -11.8695 -2.51853 -13.6483
upperneck 42.47 0.854196 4.45678
head 17.8143 -0.580755 4.92177
rclavicle -1.36913e-014 -3.97569e-016
rhumerus -30.9281 -20.384 -76.1146
rradius 29.7837
rwrist 8.59123
rhand -13.8826 7.04743
rfingers 7.12502
rthumb 12.2423 -22.5743
lclavicle -1.36913e-014 -3.97569e-016
lhumerus -28.1098 1.33761 85.8633
lradius 38.0464
lwrist -2.43354
lhand -18.8006 26.4207
lfingers 7.12502
lthumb 7.49763 56.2678
rfemur -28.3693 -2.9941 13.5564
rtibia 33.8531
rfoot -3.85576 7.66207
rtoes -21.2071
lfemur 12.0854 0.360268 -27.9866
ltibia 8.3459
lfoot -6.58237 -8.85967
ltoes -7.65484
507
root -20.8774 17.8354 10.0779 -295.358 85.9638 66.432
lowerback 10.6585 -1.03113 -6.73806
upperback 1.91814 -2.0493 0.226816
thorax -3.71769 -0.910209 4.30873
lowerneck -11.7649 -2.53226 -13.5009
upperneck 42.3694 0.831658 4.28114
head 17.7314 -0.584738 4.79836
rclavicle -9.79014e-015 -9.93923e-015
rhumerus -30.8649 -19.8612 -76.5039
rradius 30.1665
rwrist 8.15852
rhand -13.8891 7.42833
rfingers 7.12502
rthumb 12.236 -22.1937
lclavicle -9.79014e-015 -9.93923e-015
lhumerus -28.329 1.03366 85.8131
lradius 37.7338
lwrist -2.58241
lhand -18.0992 25.9553
lfingers 7.12502
lthumb 8.1746 55.7771
rfemur -28.7549 -3.27522 13.5139
rtibia 35.3021
rfoot -4.26082 7.96555
rtoes -19.1145
lfemur 11.6142 0.550006 -28.239
ltibia 8.45695
lfoot -7.16072 -8.09776
ltoes -15.0752
508
root -21.0081 17.8471 10.0442 -298.699 85.8508 63.1777
lowerback 10.7326 -0.933325 -6.63868
upperback 1.93612 -1.91544 0.149493
thorax -3.7625 -0.843524 4.15625
lowerneck -11.6385 -2.51493 -13.5015
upperneck 42.3623 0.815136 4.35039
head 17.6934 -0.57903 4.82582
rclavicle 1.86733e-014 1.30204e-014
rhumerus -30.8436 -19.276 -76.9599
rradius 30.5377
rwrist 7.68354
rhand -13.7278 7.53193
rfingers 7.12502
rthumb 12.3916 -22.0808
lclavicle 1.86733e-014 1.30204e-014
lhumerus -28.6518 0.572642 85.7551
lradius 37.5709
lwrist -2.46438
lhand -17.7008 25.9334
lfingers 7.12502
lthumb 8.55906 55.74
rfemur -29.0725 -3.55047 13.4991
rtibia 36.9094
rfoot -4.52192 7.48603
rtoes -16.2943
lfemur 11.1275 0.708518 -28.336
ltibia 8.74612
lfoot -7.13559 -8.04097
ltoes -13.0952
